<svg width="35" height="36" viewBox="0 0 35 36" fill="none" xmlns="http://www.w3.org/2000/svg">
<path fill-rule="evenodd" clip-rule="evenodd" d="M9.36241 7.54375C9.0514 7.25395 8.64005 7.09618 8.21502 7.10368C7.78998 7.11118 7.38445 7.28336 7.08386 7.58395C6.78327 7.88454 6.61109 8.29007 6.60359 8.71511C6.59609 9.14014 6.75386 9.55149 7.04366 9.8625L15.1812 18L7.04366 26.1375C6.88247 26.2877 6.75318 26.4688 6.66351 26.6701C6.57384 26.8713 6.52563 27.0886 6.52174 27.3089C6.51785 27.5291 6.55838 27.748 6.64089 27.9522C6.72341 28.1565 6.84622 28.3421 7.00201 28.4979C7.1578 28.6537 7.34338 28.7765 7.54766 28.859C7.75195 28.9415 7.97076 28.9821 8.19105 28.9782C8.41134 28.9743 8.62859 28.9261 8.82984 28.8364C9.03108 28.7467 9.21221 28.6174 9.36241 28.4562L17.4999 20.3188L25.6374 28.4562C25.7876 28.6174 25.9687 28.7467 26.17 28.8364C26.3712 28.9261 26.5885 28.9743 26.8088 28.9782C27.0291 28.9821 27.2479 28.9415 27.4522 28.859C27.6564 28.7765 27.842 28.6537 27.9978 28.4979C28.1536 28.3421 28.2764 28.1565 28.3589 27.9522C28.4414 27.748 28.482 27.5291 28.4781 27.3089C28.4742 27.0886 28.426 26.8713 28.3363 26.6701C28.2466 26.4688 28.1173 26.2877 27.9562 26.1375L19.8187 18L27.9562 9.8625C28.246 9.55149 28.4037 9.14014 28.3962 8.71511C28.3887 8.29007 28.2165 7.88454 27.916 7.58395C27.6154 7.28336 27.2098 7.11118 26.7848 7.10368C26.3598 7.09618 25.9484 7.25395 25.6374 7.54375L17.4999 15.6812L9.36241 7.54375Z" fill="#67ADFF"/>
</svg>
