<svg width="102" height="52" viewBox="0 0 102 52" fill="none" xmlns="http://www.w3.org/2000/svg">
<path d="M53.0558 48.3576L58.5116 48.4545L31.1342 8.27272H26.5835L6.32558 37.2889H11.2188L28.8588 12.0269L53.0558 48.3576Z" fill="#F58F29"/>
<path d="M54.9535 12.2601V8.27272H66.7748H68.782H82.9529C88.8515 8.27272 93.6977 13.0624 93.6977 18.9462V26.7508C93.6977 32.6102 88.8515 37.4242 82.9529 37.4242H68.782H66.7748H54.9535V33.4369V12.2601ZM68.782 33.4126H82.9529C86.649 33.4126 89.6592 30.422 89.6592 26.7508V18.9462C89.6592 15.2749 86.649 12.2844 82.9529 12.2844H68.782H66.7748H58.9675V33.4126H66.7748H68.782Z" fill="#F58F29"/>
<path d="M29.2558 31.5151C30.7842 31.5151 32.0233 30.3687 32.0233 28.9545C32.0233 27.5404 30.7842 26.3939 29.2558 26.3939C27.7274 26.3939 26.4884 27.5404 26.4884 28.9545C26.4884 30.3687 27.7274 31.5151 29.2558 31.5151Z" fill="#222020"/>
<path d="M74.3256 12.2634H58.9631V37.4242H54.9776V12.2634H38.3592L35.5814 8.27272H76.8953L74.3256 12.2634Z" fill="#222020"/>
</svg>
