<svg width="102" height="52" viewBox="0 0 102 52" fill="none" xmlns="http://www.w3.org/2000/svg">
<path d="M53.0558 48.3574L58.5116 48.4543L31.1342 8.27246H26.5835L6.32558 37.2886H11.2188L28.8588 12.0266L53.0558 48.3574Z" fill="white"/>
<path d="M54.9535 12.2598V8.27246H66.7748H68.782H82.9529C88.8515 8.27246 93.6977 13.0622 93.6977 18.9459V26.7505C93.6977 32.61 88.8515 37.424 82.9529 37.424H68.782H66.7748H54.9535V33.4366V12.2598ZM68.782 33.4123H82.9529C86.649 33.4123 89.6592 30.4218 89.6592 26.7505V18.9459C89.6592 15.2747 86.649 12.2841 82.9529 12.2841H68.782H66.7748H58.9675V33.4123H66.7748H68.782Z" fill="white"/>
<path d="M29.2558 31.5148C30.7842 31.5148 32.0233 30.3684 32.0233 28.9542C32.0233 27.54 30.7842 26.3936 29.2558 26.3936C27.7274 26.3936 26.4884 27.54 26.4884 28.9542C26.4884 30.3684 27.7274 31.5148 29.2558 31.5148Z" fill="#222020"/>
<path d="M74.3256 12.2631H58.9631V37.424H54.9776V12.2631H38.3592L35.5814 8.27246H76.8953L74.3256 12.2631Z" fill="#222020"/>
</svg>
