<svg width="88" height="88" viewBox="0 0 88 88" fill="none" xmlns="http://www.w3.org/2000/svg">
<path d="M44 7.3335C23.8333 7.3335 7.33331 23.8335 7.33331 44.0002C7.33331 64.1668 23.8333 80.6668 44 80.6668C64.1666 80.6668 80.6666 64.1668 80.6666 44.0002C80.6666 23.8335 64.1666 7.3335 44 7.3335Z" fill="#B5DFFF"/>
<path d="M82.5 44C82.5 65.45 65.0833 82.5 44 82.5C22.9167 82.5 5.5 65.45 5.5 44C5.5 22.55 22.55 5.5 44 5.5C65.45 5.5 82.5 22.55 82.5 44ZM43.6333 61.7833C43.6333 61.05 43.2667 60.6833 42.5333 60.3167C40.15 59.5833 37.95 59.5833 35.9333 57.5667C35.5667 56.8333 35.5667 56.1 35.2 55.1833C34.4667 54.45 32.45 54.0833 31.35 53.7167H23.65C22.55 53.35 21.6333 51.7 20.9 50.6C20.9 50.2333 20.9 49.5 20.1667 49.5C19.4333 49.1333 18.7 49.8667 17.7833 49.5C17.4167 49.1333 17.4167 48.7667 17.4167 48.4C17.4167 47.3 18.15 46.0167 18.8833 45.2833C19.9833 44.55 21.2667 45.65 22.3667 45.65C22.7333 45.65 22.7333 45.65 23.1 46.0167C24.2 46.3833 24.5667 47.85 24.5667 49.1333V49.8667C24.5667 50.2333 24.9333 50.2333 25.3 50.2333C25.6667 48.2167 25.6667 46.3833 26.0333 44.3667C26.0333 41.9833 28.4167 39.7833 30.25 39.05C30.9833 38.6833 31.35 39.4167 32.2667 39.05C34.65 38.3167 40.3333 35.9333 39.2333 32.8167C38.5 30.0667 36.1167 27.5 33 27.8667C32.2667 28.2333 31.9 28.6 31.1667 28.9667C30.0667 29.7 27.6833 32.0833 26.5833 32.0833C24.5667 31.7167 24.5667 28.9667 25.1167 27.8667C25.4833 26.4 28.9667 21.2667 31.35 22.1833L32.8167 23.65C33.55 24.0167 34.8333 24.0167 35.9333 24.0167C36.3 24.0167 36.6667 24.0167 37.0333 23.65C37.4 23.2833 37.4 23.2833 37.4 22.9167C37.4 21.8167 36.3 20.5333 35.5667 19.8C34.8333 19.0667 33.55 18.3333 32.45 17.7833C28.6 16.6833 22.3667 18.15 19.4333 20.9C16.5 23.65 14.1167 28.2333 12.4667 32.0833C11.7333 34.4667 11 37.4 10.6333 40.15C10.2667 41.9833 9.9 43.6333 11 45.4667C12.1 47.85 14.4833 50.05 16.8667 51.7C18.3333 52.8 21.45 52.8 23.1 54.8167C24.2 56.2833 23.8333 58.3 23.8333 60.1333C23.8333 62.5167 25.3 64.35 26.2167 66.3667C26.5833 67.4667 26.95 69.1167 27.3167 70.2167C27.3167 70.5833 27.6833 72.9667 27.6833 73.3333C30.0667 74.4333 31.9 75.7167 34.65 76.45C35.0167 76.45 36.4833 74.0667 36.4833 73.7C37.5833 72.6 38.5 70.95 39.6 70.2167C40.3333 69.85 41.0667 69.4833 41.9833 68.75C42.7167 68.0167 43.0833 66.3667 43.45 65.2667C43.6333 64.35 44 62.8833 43.6333 61.7833ZM44.3667 26.2167C44.7333 26.2167 45.1 25.85 45.8333 25.4833C46.9333 24.75 48.2167 23.4667 49.3167 22.7333C50.4167 22 51.7 20.7167 52.4333 19.9833C53.5333 19.25 54.45 17.6 54.8167 16.5C55.1833 15.7667 56.2833 14.1167 55.9167 13.0167C55.55 12.2833 53.5333 11.9167 52.8 11.55C49.6833 10.8167 47.1167 10.45 44 10.45C42.9 10.45 41.25 10.8167 40.8833 11.9167C40.5167 13.9333 41.9833 13.3833 43.6333 13.9333C43.6333 13.9333 44 17.05 44 17.4167C44.3667 19.25 43.2667 20.5333 43.2667 22.3667C43.2667 23.4667 43.2667 25.4833 44 26.2167H44.3667ZM76.6333 53.1667C77 52.4333 77 51.15 77.3667 50.4167C77.7333 48.5833 77.7333 46.5667 77.7333 44.7333C77.7333 40.8833 77.3667 37.0333 76.2667 33.55C75.5333 32.45 75.1667 31.1667 74.8 30.0667C74.0667 28.05 72.9667 26.2167 71.3167 24.75C69.85 22.7333 67.8333 17.4167 64.35 19.0667C63.25 19.4333 62.5167 20.9 61.6 21.8167C60.8667 22.9167 60.1333 24.2 59.2167 25.3C58.85 25.6667 58.4833 26.4 58.85 26.7667C58.85 27.1333 59.2167 27.1333 59.5833 27.1333C60.3167 27.5 60.6833 27.5 61.4167 27.8667C61.7833 27.8667 62.15 28.2333 61.7833 28.6C61.7833 28.6 61.7833 28.9667 61.4167 28.9667C59.5833 30.9833 57.5667 32.45 55.7333 34.2833C55.3667 34.65 55 35.3833 55 35.75C55 36.1167 55.3667 36.1167 55.3667 36.4833C55.3667 36.85 55 36.85 54.6333 37.2167C53.9 37.5833 53.1667 37.95 52.6167 38.3167C52.25 39.05 52.6167 40.3333 52.25 41.0667C51.8833 43.0833 50.7833 44.55 49.8667 46.3833C49.1333 47.4833 48.7667 48.7667 48.0333 49.8667C48.0333 51.3333 47.6667 52.6167 48.4 53.7167C50.2333 56.4667 53.7167 54.8167 56.4667 56.1C57.2 56.4667 57.9333 56.4667 58.4833 57.2C59.5833 58.3 59.5833 60.3167 59.95 61.4167C60.3167 62.8833 60.6833 64.5333 61.4167 66C61.7833 67.8333 62.5167 69.85 62.8833 71.3167C66.3667 68.5667 69.4833 65.6333 71.6833 61.7833C74.4333 59.4 75.5333 56.2833 76.6333 53.1667Z" fill="#67ADFF"/>
<path d="M70.5 53.8335H65.5C64.0833 53.8335 63 54.9168 63 56.3335V58.8335H64.6667V56.3335C64.6667 55.8335 65 55.5002 65.5 55.5002H70.5C71 55.5002 71.3333 55.8335 71.3333 56.3335V58.8335H73V56.3335C73 54.9168 71.9167 53.8335 70.5 53.8335Z" fill="#222020"/>
<path d="M81.3333 83.8332H54.6666C52.8333 83.8332 51.3333 82.3332 51.3333 80.4998V60.4998C51.3333 58.6665 52.8333 57.1665 54.6666 57.1665H81.3333C83.1666 57.1665 84.6666 58.6665 84.6666 60.4998V80.4998C84.6666 82.3332 83.1666 83.8332 81.3333 83.8332Z" fill="#F58F29"/>
<path d="M81.3333 71.3332H54.6666C52.8333 71.3332 51.3333 69.8332 51.3333 67.9998V60.4998C51.3333 58.6665 52.8333 57.1665 54.6666 57.1665H81.3333C83.1666 57.1665 84.6666 58.6665 84.6666 60.4998V67.9998C84.6666 69.8332 83.1666 71.3332 81.3333 71.3332Z" fill="#FE9D3C"/>
<path d="M69.6667 69.6668H66.3333C65.8333 69.6668 65.5 69.3335 65.5 68.8335V67.1668C65.5 66.6668 65.8333 66.3335 66.3333 66.3335H69.6667C70.1667 66.3335 70.5 66.6668 70.5 67.1668V68.8335C70.5 69.3335 70.1667 69.6668 69.6667 69.6668Z" fill="#FFF3E0"/>
</svg>
