<svg width="88" height="88" viewBox="0 0 88 88" fill="none" xmlns="http://www.w3.org/2000/svg">
<path d="M73.334 38.5H80.6673V80.6667H73.334V38.5ZM62.334 51.3333H69.6673V80.6667H62.334V51.3333ZM51.334 42.1667H58.6673V80.6667H51.334V42.1667ZM40.334 53.1667H47.6673V80.6667H40.334V53.1667ZM29.334 58.6667H36.6673V80.6667H29.334V58.6667ZM18.334 55H25.6673V80.6667H18.334V55ZM7.33398 62.3333H14.6673V80.6667H7.33398V62.3333Z" fill="#B5DFFF"/>
<path fill-rule="evenodd" clip-rule="evenodd" d="M51.334 42.1667H58.6673V80.6667H51.334V42.1667Z" fill="#F58F29"/>
<path d="M73.5166 16.6831L62.3333 27.8664L55 20.5331L36.6667 38.8664L27.5 29.6998L8.43332 48.7664L13.5667 53.8998L27.5 39.9664L36.6667 49.1331L55 30.7998L62.3333 38.1331L78.65 21.8164L73.5166 16.6831Z" fill="#67ADFF"/>
<path d="M80.6667 14.6665H64.1667L80.6667 31.1665V14.6665Z" fill="#67ADFF"/>
</svg>
