<svg width="88" height="89" viewBox="0 0 88 89" fill="none" xmlns="http://www.w3.org/2000/svg">
<path d="M44 7.8335C33.9167 7.8335 25.6667 16.0835 25.6667 26.1668V33.5002H33V26.1668C33 20.1168 37.95 15.1668 44 15.1668C50.05 15.1668 55 20.1168 55 26.1668H62.3334C62.3334 16.0835 54.0834 7.8335 44 7.8335Z" fill="#F58F29"/>
<path d="M66 81.1667H22C17.9667 81.1667 14.6667 77.8667 14.6667 73.8333V40.8333C14.6667 36.8 17.9667 33.5 22 33.5H66C70.0334 33.5 73.3334 36.8 73.3334 40.8333V73.8333C73.3334 77.8667 70.0334 81.1667 66 81.1667Z" fill="#67ADFF"/>
<path d="M44 62.8335C47.0376 62.8335 49.5 60.3711 49.5 57.3335C49.5 54.2959 47.0376 51.8335 44 51.8335C40.9624 51.8335 38.5 54.2959 38.5 57.3335C38.5 60.3711 40.9624 62.8335 44 62.8335Z" fill="#A9DBFF"/>
</svg>
