<svg width="105" height="88" viewBox="0 0 105 88" fill="none" xmlns="http://www.w3.org/2000/svg">
<path d="M69.6667 55.0002C73.7168 55.0002 77 51.7169 77 47.6668C77 43.6167 73.7168 40.3335 69.6667 40.3335C65.6166 40.3335 62.3333 43.6167 62.3333 47.6668C62.3333 51.7169 65.6166 55.0002 69.6667 55.0002Z" fill="#67ADFF"/>
<path d="M18.3333 55.0002C22.3834 55.0002 25.6667 51.7169 25.6667 47.6668C25.6667 43.6167 22.3834 40.3335 18.3333 40.3335C14.2832 40.3335 11 43.6167 11 47.6668C11 51.7169 14.2832 55.0002 18.3333 55.0002Z" fill="#67ADFF"/>
<path d="M71.5 34.8334C71.5 11.55 16.5 19.6167 16.5 34.8334V53.1667C16.5 68.3834 28.7833 80.6667 44 80.6667C59.2167 80.6667 71.5 68.3834 71.5 53.1667V34.8334Z" fill="#67ADFF"/>
<path d="M44 7.3335C27.8667 7.3335 14.6667 20.5335 14.6667 36.6668V43.0835L18.5167 44.1835V34.8335L54.2667 23.2835L69.3 34.8335V44.1835L73.15 43.0835V36.6668C73.3333 22.9168 63.4333 7.3335 44 7.3335Z" fill="#67ADFF"/>
<path d="M57 38H63V62H57V38ZM49 46H55V62H49V46ZM41 42H47V62H41V42ZM33 52H39V62H33V52ZM25 48H31V62H25V48Z" fill="white"/>
<path d="M28 39C29.6569 39 31 37.6569 31 36C31 34.3431 29.6569 33 28 33C26.3431 33 25 34.3431 25 36C25 37.6569 26.3431 39 28 39Z" fill="#B5DFFF"/>
<path d="M36 41C37.6569 41 39 39.6569 39 38C39 36.3431 37.6569 35 36 35C34.3431 35 33 36.3431 33 38C33 39.6569 34.3431 41 36 41Z" fill="#B5DFFF"/>
<path d="M44 34C45.6569 34 47 32.6569 47 31C47 29.3431 45.6569 28 44 28C42.3431 28 41 29.3431 41 31C41 32.6569 42.3431 34 44 34Z" fill="#B5DFFF"/>
<path d="M52 36C53.6569 36 55 34.6569 55 33C55 31.3431 53.6569 30 52 30C50.3431 30 49 31.3431 49 33C49 34.6569 50.3431 36 52 36Z" fill="#B5DFFF"/>
<path d="M60 32C61.6569 32 63 30.6569 63 29C63 27.3431 61.6569 26 60 26C58.3431 26 57 27.3431 57 29C57 30.6569 58.3431 32 60 32Z" fill="#B5DFFF"/>
<path d="M59.1 27.2002L51.8 30.9002L43.5 28.8002L35.5 35.8002L28.5 34.1002L27.5 37.9002L36.5 40.2002L44.5 33.2002L52.2 35.1002L60.9 30.8002L59.1 27.2002Z" fill="#B5DFFF"/>
<path d="M95 21.6668H88.7333L93 10.3335H85.6667L81.6667 24.3335H87.4L84.3333 37.0002L95 21.6668Z" fill="#F58F29"/>
</svg>
