<svg width="204" height="220" viewBox="0 0 204 220" fill="none" xmlns="http://www.w3.org/2000/svg">
<path d="M102 143C138.129 143 167.417 113.899 167.417 78C167.417 42.1015 138.129 13 102 13C65.8714 13 36.5833 42.1015 36.5833 78C36.5833 113.899 65.8714 143 102 143Z" fill="#BBDBFF"/>
<path d="M102 130C130.903 130 154.333 106.719 154.333 78C154.333 49.2812 130.903 26 102 26C73.0971 26 49.6667 49.2812 49.6667 78C49.6667 106.719 73.0971 130 102 130Z" fill="#67ADFF"/>
<path d="M98.7292 35.75H105.271V78H98.7292V35.75Z" fill="white"/>
<path d="M125.827 96.3756L120.512 101.66L99.2386 80.5221L104.557 75.2344L125.827 96.3756Z" fill="white"/>
<path d="M102 84.5C105.613 84.5 108.542 81.5899 108.542 78C108.542 74.4101 105.613 71.5 102 71.5C98.3871 71.5 95.4583 74.4101 95.4583 78C95.4583 81.5899 98.3871 84.5 102 84.5Z" fill="white"/>
<path d="M102 81.25C103.806 81.25 105.271 79.7949 105.271 78C105.271 76.2051 103.806 74.75 102 74.75C100.194 74.75 98.7292 76.2051 98.7292 78C98.7292 79.7949 100.194 81.25 102 81.25Z" fill="#BBDBFF"/>
<path d="M65.4497 161.745C57.0661 159.381 54.7015 151.642 43.0935 138.959C31.4855 126.276 21.5973 133.8 32.9903 147.128C44.5983 160.455 44.5983 165.829 39.0092 164.54C33.8501 163.465 12.9987 146.698 12.9987 133.155V114.023C12.9987 111.874 11.709 109.939 10.2042 109.079C9.34438 108.434 8.26957 108.219 6.97979 108.219C5.69001 108.219 4.6152 108.649 3.75535 109.079C2.03564 110.154 0.960833 111.874 0.960833 114.023C0.960833 114.238 0.960833 114.453 0.960833 114.668V141.109C0.960833 141.109 0.315947 146.483 6.11994 152.502C10.2042 156.586 20.3075 170.989 20.3075 170.989C20.3075 170.989 23.317 177.437 29.5509 180.877C35.7848 184.316 46.318 188.616 54.4866 191.195C62.6551 193.775 57.711 220 57.711 220H87.8058V181.522C88.0208 181.307 87.8058 167.979 65.4497 161.745Z" fill="white"/>
<path d="M203.018 114.664C203.018 114.449 203.018 114.234 203.018 114.019C203.018 111.869 201.943 109.935 200.223 108.86C199.364 108.215 198.074 108 196.999 108C195.924 108 194.849 108.43 193.775 108.86C192.055 109.935 190.98 111.869 190.98 113.804V132.936C190.98 146.478 170.129 163.245 164.97 164.32C159.381 165.395 159.596 160.236 170.989 146.908C182.597 133.581 172.493 126.057 160.885 138.74C149.277 151.422 146.913 159.376 138.529 161.526C115.958 167.76 115.958 181.087 115.958 181.087V219.566H146.053C146.053 219.566 141.109 193.34 149.492 190.761C157.661 188.181 168.194 183.882 174.428 180.442C180.662 177.003 183.671 170.554 183.671 170.554C183.671 170.554 193.775 156.367 197.859 152.067C203.878 146.048 203.018 140.674 203.018 140.674V114.664Z" fill="white"/>
</svg>
