<svg width="252" height="220" viewBox="0 0 252 220" fill="none" xmlns="http://www.w3.org/2000/svg">
<path d="M75.8827 56.6596C89.316 52.2339 96.6181 37.7564 92.1924 24.3231C87.7667 10.8898 73.2891 3.58771 59.8558 8.01342C46.4225 12.4391 39.1204 26.9167 43.5462 40.35C47.9719 53.7833 62.4494 61.0854 75.8827 56.6596Z" fill="#BBDBFF"/>
<path opacity="0.53" d="M86.9804 26.0402C90.4577 36.5947 84.7202 47.9702 74.1657 51.4475C63.6112 54.9248 52.2356 49.1872 48.7584 38.6327C45.2811 28.0783 51.0186 16.7027 61.5731 13.2255C72.1276 9.7482 83.5032 15.4857 86.9804 26.0402ZM81.0761 35.4773C80.9534 35.3106 80.7812 35.187 80.5841 35.1239C80.3869 35.0609 80.1749 35.0618 79.9783 35.1264L80.0304 35.1093L75.5887 21.6273C76.1755 20.8947 75.9195 19.6501 74.8386 19.4092L63.6083 16.8306C63.3633 16.7697 63.106 16.7793 62.8663 16.8583C62.6265 16.9373 62.4139 17.0824 62.2531 17.277L54.7373 26.0317C54.0113 26.868 54.5453 28.0209 55.4352 28.267L59.8827 41.7663L59.6916 41.8293C59.2746 41.9667 59.0014 42.3649 59.0288 42.7988L59.1362 45.1708C59.157 45.8188 59.8034 46.2607 60.4114 46.0603L82.0416 38.9341C82.644 38.7164 82.8954 37.9595 82.5039 37.4144L81.0761 35.4773ZM58.388 27.5253L62.761 40.7988L65.645 39.8486L61.272 26.5752L58.388 27.5253ZM64.1386 25.6307L68.5117 38.9042L71.4478 37.9369L67.0748 24.6634L64.1386 25.6307ZM69.9588 23.7132L74.3319 36.9867L77.1464 36.0594L72.7733 22.7859L69.9588 23.7132Z" fill="#4FB3FF"/>
<path d="M95.0712 64.2438C102.972 75.9752 118.886 79.0808 130.618 71.1804C142.349 63.28 145.455 47.3654 137.554 35.634C129.654 23.9027 113.739 20.7971 102.008 28.6975C90.2764 36.5979 87.1708 52.5125 95.0712 64.2438Z" fill="#BBDBFF"/>
<path opacity="0.53" d="M127.553 66.6283C118.335 72.8356 105.831 70.3954 99.6234 61.1781C93.416 51.9609 95.8562 39.4562 105.073 33.2489C114.291 27.0415 126.795 29.4817 133.003 38.699C139.21 47.9162 136.77 60.4209 127.553 66.6283ZM116.869 63.5023C116.996 63.339 117.068 63.1397 117.075 62.9329C117.083 62.726 117.024 62.5222 116.909 62.3504L116.94 62.3959L128.713 54.4669C129.578 54.8332 130.706 54.2496 130.645 53.1439L130.084 41.6349C130.076 41.3826 129.997 41.1376 129.856 40.9282C129.715 40.7188 129.518 40.5535 129.287 40.4515L118.823 35.5893C117.822 35.1171 116.856 35.9435 116.861 36.8669L105.072 44.8061L104.959 44.6392C104.714 44.2751 104.257 44.1199 103.847 44.2639L101.592 45.0101C100.974 45.2058 100.724 45.9477 101.082 46.4787L113.803 65.3684C114.176 65.8892 114.972 65.9261 115.391 65.4016L116.869 63.5023ZM118.375 39.5081L106.783 47.3145L108.479 49.8331L120.071 42.0267L118.375 39.5081ZM121.757 44.5302L110.165 52.3366L111.892 54.9007L123.484 47.0943L121.757 44.5302ZM125.18 49.613L113.588 57.4194L115.243 59.8773L126.835 52.0709L125.18 49.613Z" fill="#4FB3FF"/>
<path d="M164.927 59.2964C176.34 67.6494 192.364 65.1684 200.717 53.7549C209.07 42.3415 206.589 26.3176 195.176 17.9646C183.762 9.61153 167.739 12.0925 159.385 23.506C151.032 34.9195 153.513 50.9433 164.927 59.2964Z" fill="#BBDBFF"/>
<path opacity="0.53" d="M196.288 50.5136C189.725 59.4811 177.135 61.4305 168.167 54.8675C159.2 48.3046 157.25 35.7141 163.813 26.7465C170.376 17.779 182.967 15.8296 191.934 22.3925C200.902 28.9555 202.851 41.546 196.288 50.5136ZM185.177 51.1998C185.242 51.0031 185.242 50.7911 185.179 50.594C185.115 50.397 184.991 50.2251 184.824 50.1027L184.868 50.1351L193.252 38.6803C194.189 38.7315 195.053 37.7994 194.62 36.78L190.185 26.1449C190.092 25.9102 189.935 25.7065 189.731 25.5575C189.527 25.4084 189.286 25.3199 189.034 25.3023L177.541 24.2807C176.438 24.1766 175.811 25.2815 176.129 26.1486L167.735 37.6182L167.572 37.4993C167.218 37.2401 166.735 37.2494 166.398 37.5241L164.531 38.9911C164.016 39.385 164.032 40.1677 164.549 40.5458L182.927 53.9958C183.454 54.3592 184.216 54.1234 184.432 53.4879L185.177 51.1998ZM178.449 28.1191L170.196 39.3967L172.646 41.1901L180.9 29.9124L178.449 28.1191ZM183.335 31.6949L175.082 42.9726L177.576 44.7983L185.83 33.5206L183.335 31.6949ZM188.28 35.314L180.027 46.5917L182.418 48.3418L190.672 37.0641L188.28 35.314Z" fill="#4FB3FF"/>
<path d="M142.554 69.8208C153.968 78.1738 169.992 75.6928 178.345 64.2793C186.698 52.8659 184.217 36.842 172.803 28.489C161.39 20.1359 145.366 22.6169 137.013 34.0304C128.66 45.4439 131.141 61.4677 142.554 69.8208Z" fill="#BBDBFF"/>
<path opacity="0.53" d="M173.915 61.038C167.352 70.0055 154.762 71.9549 145.794 65.392C136.827 58.829 134.877 46.2385 141.44 37.2709C148.003 28.3034 160.594 26.354 169.561 32.917C178.529 39.4799 180.478 52.0704 173.915 61.038ZM162.805 61.7242C162.869 61.5275 162.869 61.3155 162.806 61.1184C162.742 60.9214 162.618 60.7495 162.451 60.6271L162.496 60.6595L170.879 49.2047C171.816 49.2559 172.68 48.3238 172.247 47.3044L167.813 36.6693C167.72 36.4346 167.562 36.231 167.358 36.0819C167.155 35.9328 166.913 35.8443 166.661 35.8267L155.168 34.8052C154.066 34.701 153.438 35.8059 153.756 36.673L145.362 48.1426L145.199 48.0237C144.845 47.7645 144.362 47.7738 144.025 48.0485L142.158 49.5155C141.643 49.9094 141.66 50.6922 142.176 51.0703L160.554 64.5202C161.082 64.8836 161.844 64.6478 162.059 64.0123L162.805 61.7242ZM156.077 38.6435L147.823 49.9211L150.273 51.7145L158.527 40.4368L156.077 38.6435ZM160.963 42.2193L152.709 53.497L155.204 55.3227L163.457 44.0451L160.963 42.2193ZM165.908 45.8384L157.654 57.1161L160.045 58.8662L168.299 47.5885L165.908 45.8384Z" fill="#4FB3FF"/>
<path d="M24 83.1775L4 43.1775L248 43.1775L228 83.1775L24 83.1775Z" fill="white"/>
<path d="M41.5574 127.177L25 87.1775L227 87.1775L210.443 127.177L41.5574 127.177Z" fill="white" fill-opacity="0.8"/>
<path d="M56.6066 171.177L43 131.177L209 131.177L195.393 171.177L56.6066 171.177Z" fill="white" fill-opacity="0.6"/>
<path d="M69.1475 215.177L58 175.177L194 175.177L182.852 215.177L69.1475 215.177Z" fill="white" fill-opacity="0.4"/>
</svg>
