<svg width="248" height="221" viewBox="0 0 248 221" fill="none" xmlns="http://www.w3.org/2000/svg">
<rect x="145.106" y="40.2961" width="101.25" height="68.9181" fill="#67ADFF"/>
<rect x="145.106" y="27.5334" width="101.25" height="11.9118" fill="white"/>
<path d="M145.103 27.5334H246.413V109.214H145.103V27.5334Z" stroke="#BBDBFF" stroke-width="1.033" stroke-linecap="round" stroke-linejoin="round"/>
<path d="M145.103 40.2961L246.353 40.2961" stroke="#BBDBFF" stroke-width="2"/>
<path d="M236.654 35.66C237.557 35.66 238.29 34.9276 238.29 34.0242C238.29 33.1208 237.557 32.3884 236.654 32.3884C235.75 32.3884 235.018 33.1208 235.018 34.0242C235.018 34.9276 235.75 35.66 236.654 35.66Z" fill="#67ADFF"/>
<path d="M230.111 35.7254C231.015 35.7254 231.747 34.993 231.747 34.0896C231.747 33.1862 231.015 32.4539 230.111 32.4539C229.208 32.4539 228.475 33.1862 228.475 34.0896C228.475 34.993 229.208 35.7254 230.111 35.7254Z" fill="#67ADFF"/>
<path d="M223.567 35.66C224.47 35.66 225.202 34.9276 225.202 34.0242C225.202 33.1208 224.47 32.3884 223.567 32.3884C222.663 32.3884 221.931 33.1208 221.931 34.0242C221.931 34.9276 222.663 35.66 223.567 35.66Z" fill="#67ADFF"/>
<path d="M145.103 27.5334H246.413V109.214H145.103V27.5334Z" stroke="#BBDBFF" stroke-width="2" stroke-linecap="round" stroke-linejoin="round"/>
<path d="M236.654 35.66C237.557 35.66 238.29 34.9276 238.29 34.0242C238.29 33.1208 237.557 32.3884 236.654 32.3884C235.75 32.3884 235.018 33.1208 235.018 34.0242C235.018 34.9276 235.75 35.66 236.654 35.66Z" fill="#67ADFF"/>
<path d="M230.111 35.7254C231.015 35.7254 231.747 34.993 231.747 34.0896C231.747 33.1862 231.015 32.4539 230.111 32.4539C229.208 32.4539 228.475 33.1862 228.475 34.0896C228.475 34.993 229.208 35.7254 230.111 35.7254Z" fill="#67ADFF"/>
<path d="M223.567 35.66C224.47 35.66 225.202 34.9276 225.202 34.0242C225.202 33.1208 224.47 32.3884 223.567 32.3884C222.663 32.3884 221.931 33.1208 221.931 34.0242C221.931 34.9276 222.663 35.66 223.567 35.66Z" fill="#67ADFF"/>
<path d="M217.19 60.5232V91.7391H235.92V60.5232H217.19ZM154.758 60.5232V91.7391H173.488V60.5232H154.758Z" fill="white"/>
<path d="M232.798 66.7664C232.798 67.5943 232.469 68.3883 231.884 68.9737C231.298 69.5591 230.504 69.888 229.676 69.888C228.848 69.888 228.054 69.5591 227.469 68.9737C226.884 68.3883 226.555 67.5943 226.555 66.7664C226.555 65.9385 226.884 65.1445 227.469 64.5591C228.054 63.9737 228.848 63.6448 229.676 63.6448C230.504 63.6448 231.298 63.9737 231.884 64.5591C232.469 65.1445 232.798 65.9385 232.798 66.7664Z" fill="#BBDBFF"/>
<path d="M173.489 75.1635L171.862 73.3467C171.727 73.2015 171.559 73.0905 171.372 73.0227C171.186 72.9548 170.986 72.9322 170.788 72.9565C170.458 73.0014 170.151 73.1526 169.914 73.3873L158.227 86.4293H158.308C158.184 86.5427 158.084 86.6799 158.014 86.8327C157.944 86.9855 157.905 87.1509 157.899 87.3189C157.899 88.0369 158.486 88.6175 159.204 88.6175H173.489V75.1635Z" fill="#BBDBFF"/>
<path d="M164.052 66.8037C164.052 67.6221 163.727 68.407 163.148 68.9856C162.569 69.5643 161.784 69.8894 160.966 69.8894C160.148 69.8894 159.363 69.5643 158.784 68.9856C158.205 68.407 157.88 67.6221 157.88 66.8037C157.88 65.9853 158.205 65.2005 158.784 64.6218C159.363 64.0431 160.148 63.718 160.966 63.718C161.784 63.718 162.569 64.0431 163.148 64.6218C163.727 65.2005 164.052 65.9853 164.052 66.8037Z" fill="#BBDBFF"/>
<path d="M176.608 57.4016H214.067V94.8607H176.608V57.4016Z" fill="white"/>
<path d="M194.146 73.462L180.121 89.1074H180.217C180.068 89.2446 179.948 89.4104 179.865 89.5949C179.781 89.7793 179.735 89.9788 179.73 90.1812C179.73 90.5952 179.895 90.9922 180.187 91.2849C180.48 91.5776 180.877 91.742 181.291 91.742H209.386C209.799 91.742 210.197 91.5776 210.489 91.2849C210.782 90.9922 210.946 90.5952 210.946 90.1812C210.941 89.9789 210.894 89.7797 210.811 89.5953C210.727 89.4109 210.608 89.2451 210.459 89.1074H210.556L196.481 73.4058C195.663 72.5879 194.655 72.9563 194.146 73.462Z" fill="#BBDBFF"/>
<path d="M188.922 66.7352C188.935 67.1466 188.865 67.5565 188.717 67.9404C188.569 68.3244 188.345 68.6746 188.058 68.9702C187.772 69.2659 187.429 69.501 187.05 69.6615C186.671 69.822 186.264 69.9048 185.852 69.9048C185.44 69.9048 185.033 69.822 184.654 69.6615C184.275 69.501 183.932 69.2659 183.646 68.9702C183.359 68.6746 183.135 68.3244 182.987 67.9404C182.838 67.5565 182.769 67.1466 182.782 66.7352C182.807 65.9379 183.142 65.1818 183.715 64.6268C184.288 64.0718 185.054 63.7615 185.852 63.7615C186.65 63.7615 187.416 64.0718 187.989 64.6268C188.562 65.1818 188.897 65.9379 188.922 66.7352Z" fill="#BBDBFF"/>
<path d="M206.63 76.668L193.114 91.7453C198.926 91.7453 203.79 91.7765 210.941 91.7453V79.2589L208.818 76.7398C207.994 75.9219 207.136 76.1654 206.627 76.6742L206.63 76.668Z" fill="#BBDBFF"/>
<path d="M184.414 97.9824H206.265C206.679 97.9824 207.076 98.1468 207.369 98.4395C207.661 98.7322 207.826 99.1292 207.826 99.5432C207.826 99.9571 207.661 100.354 207.369 100.647C207.076 100.94 206.679 101.104 206.265 101.104H184.414C184 101.104 183.603 100.94 183.31 100.647C183.017 100.354 182.853 99.9571 182.853 99.5432C182.853 99.1292 183.017 98.7322 183.31 98.4395C183.603 98.1468 184 97.9824 184.414 97.9824ZM159.441 48.0369H231.238C231.652 48.0369 232.049 48.2013 232.341 48.494C232.634 48.7867 232.799 49.1837 232.799 49.5977C232.799 50.0116 232.634 50.4086 232.341 50.7013C232.049 50.994 231.652 51.1585 231.238 51.1585H159.441C159.027 51.1585 158.63 50.994 158.337 50.7013C158.045 50.4086 157.88 50.0116 157.88 49.5977C157.88 49.1837 158.045 48.7867 158.337 48.494C158.63 48.2013 159.027 48.0369 159.441 48.0369Z" fill="#BBDBFF"/>
<path d="M217.189 88.5989H217.944L217.938 88.6051C222.786 88.6051 226.841 88.6301 232.803 88.6051V78.1977L231.03 76.1C230.349 75.4226 229.625 75.6255 229.207 76.0469L226.194 79.3995L220.744 73.3218C220.61 73.1767 220.443 73.0657 220.257 72.9978C220.072 72.93 219.873 72.9073 219.676 72.9316C219.345 72.9793 219.037 73.1326 218.799 73.3686L217.189 75.1635V88.5989Z" fill="#BBDBFF"/>
<rect x="1.58706" y="40.2961" width="101.25" height="68.9181" fill="#67ADFF"/>
<rect x="1.58706" y="27.5334" width="101.25" height="11.9118" fill="white"/>
<path d="M1.58706 27.5334H102.897V109.214H1.58706V27.5334Z" stroke="#BBDBFF" stroke-width="1.033" stroke-linecap="round" stroke-linejoin="round"/>
<path d="M1.58706 40.2961L102.837 40.2961" stroke="#BBDBFF" stroke-width="2"/>
<path d="M93.1378 35.66C94.0412 35.66 94.7736 34.9276 94.7736 34.0242C94.7736 33.1208 94.0412 32.3884 93.1378 32.3884C92.2344 32.3884 91.502 33.1208 91.502 34.0242C91.502 34.9276 92.2344 35.66 93.1378 35.66Z" fill="#67ADFF"/>
<path d="M86.5953 35.7254C87.4987 35.7254 88.231 34.993 88.231 34.0896C88.231 33.1862 87.4987 32.4539 86.5953 32.4539C85.6918 32.4539 84.9595 33.1862 84.9595 34.0896C84.9595 34.993 85.6918 35.7254 86.5953 35.7254Z" fill="#67ADFF"/>
<path d="M80.0506 35.66C80.954 35.66 81.6864 34.9276 81.6864 34.0242C81.6864 33.1208 80.954 32.3884 80.0506 32.3884C79.1472 32.3884 78.4148 33.1208 78.4148 34.0242C78.4148 34.9276 79.1472 35.66 80.0506 35.66Z" fill="#67ADFF"/>
<path d="M1.58706 27.5334H102.897V109.214H1.58706V27.5334Z" stroke="#BBDBFF" stroke-width="2" stroke-linecap="round" stroke-linejoin="round"/>
<path d="M93.1378 35.66C94.0412 35.66 94.7736 34.9276 94.7736 34.0242C94.7736 33.1208 94.0412 32.3884 93.1378 32.3884C92.2344 32.3884 91.502 33.1208 91.502 34.0242C91.502 34.9276 92.2344 35.66 93.1378 35.66Z" fill="#67ADFF"/>
<path d="M86.5953 35.7254C87.4987 35.7254 88.231 34.993 88.231 34.0896C88.231 33.1862 87.4987 32.4539 86.5953 32.4539C85.6918 32.4539 84.9595 33.1862 84.9595 34.0896C84.9595 34.993 85.6918 35.7254 86.5953 35.7254Z" fill="#67ADFF"/>
<path d="M80.0506 35.66C80.954 35.66 81.6864 34.9276 81.6864 34.0242C81.6864 33.1208 80.954 32.3884 80.0506 32.3884C79.1472 32.3884 78.4148 33.1208 78.4148 34.0242C78.4148 34.9276 79.1472 35.66 80.0506 35.66Z" fill="#67ADFF"/>
<path d="M10.2164 48.0366H94.1692V87.0147H10.2164V48.0366Z" fill="#BBDBFF"/>
<path d="M10.028 90.0132H28.0179V102.006H10.028V90.0132ZM31.0162 90.0132H49.0061V102.006H31.0162V90.0132ZM52.0044 90.0132H69.9943V102.006H52.0044V90.0132ZM72.9926 90.0132H93.9808V102.006H72.9926V90.0132ZM49.6597 61.5502C49.5608 61.5892 49.5158 61.7211 49.4438 61.7781C49.051 62.0869 49.0061 62.7555 49.0061 63.8079V71.3637C49.0121 72.647 49.105 73.4925 49.8846 73.5075C49.9925 73.5075 50.1844 73.5435 50.3223 73.5075C50.6971 73.4625 51.2488 73.3096 51.8575 72.9438L56.5708 69.6696C57.0326 69.4007 57.4113 69.0095 57.6652 68.5393C57.8511 68.2719 57.9647 67.961 57.995 67.6368C57.9995 67.5629 57.9995 67.4888 57.995 67.4149C57.992 67.304 57.9081 67.181 57.8871 67.0761C57.8271 66.8872 57.7941 66.6953 57.6652 66.5124C57.4102 66.0437 57.0318 65.6538 56.5708 65.385L51.8575 62.1109C51.3895 61.8204 50.8671 61.6286 50.3223 61.5472H50.2114C50.1005 61.5112 49.9745 61.5442 49.8846 61.5472H49.6597V61.5502Z" fill="white"/>
<rect x="52.2395" y="19.0911" width="143.522" height="97.6917" fill="#67ADFF"/>
<rect x="52.2395" y="1" width="143.522" height="16.885" fill="white"/>
<path d="M52.2376 1H195.845V116.783H52.2376V1Z" stroke="#BBDBFF" stroke-width="1.033" stroke-linecap="round" stroke-linejoin="round"/>
<path d="M52.2376 19.0911L195.76 19.0911" stroke="#BBDBFF" stroke-width="2"/>
<path d="M182.012 12.5195C183.293 12.5195 184.331 11.4814 184.331 10.2008C184.331 8.9202 183.293 7.88208 182.012 7.88208C180.732 7.88208 179.693 8.9202 179.693 10.2008C179.693 11.4814 180.732 12.5195 182.012 12.5195Z" fill="#67ADFF"/>
<path d="M172.737 12.6123C174.018 12.6123 175.056 11.5742 175.056 10.2936C175.056 9.01298 174.018 7.97485 172.737 7.97485C171.456 7.97485 170.418 9.01298 170.418 10.2936C170.418 11.5742 171.456 12.6123 172.737 12.6123Z" fill="#67ADFF"/>
<path d="M163.46 12.5195C164.74 12.5195 165.778 11.4814 165.778 10.2008C165.778 8.9202 164.74 7.88208 163.46 7.88208C162.179 7.88208 161.141 8.9202 161.141 10.2008C161.141 11.4814 162.179 12.5195 163.46 12.5195Z" fill="#67ADFF"/>
<path d="M52.2376 1H195.845V116.783H52.2376V1Z" stroke="#BBDBFF" stroke-width="2" stroke-linecap="round" stroke-linejoin="round"/>
<path d="M182.012 12.5195C183.293 12.5195 184.331 11.4814 184.331 10.2008C184.331 8.9202 183.293 7.88208 182.012 7.88208C180.732 7.88208 179.693 8.9202 179.693 10.2008C179.693 11.4814 180.732 12.5195 182.012 12.5195Z" fill="#67ADFF"/>
<path d="M172.737 12.6123C174.018 12.6123 175.056 11.5742 175.056 10.2936C175.056 9.01298 174.018 7.97485 172.737 7.97485C171.456 7.97485 170.418 9.01298 170.418 10.2936C170.418 11.5742 171.456 12.6123 172.737 12.6123Z" fill="#67ADFF"/>
<path d="M163.46 12.5195C164.74 12.5195 165.778 11.4814 165.778 10.2008C165.778 8.9202 164.74 7.88208 163.46 7.88208C162.179 7.88208 161.141 8.9202 161.141 10.2008C161.141 11.4814 162.179 12.5195 163.46 12.5195Z" fill="#67ADFF"/>
<path d="M72.7425 114.371L82.509 104.722H165.492L175.258 114.371H72.7425Z" fill="#BBDBFF"/>
<path d="M64.5627 29.9458H75.26C75.9693 29.9458 76.6495 30.223 77.151 30.7165C77.6526 31.21 77.9343 31.8793 77.9343 32.5772V43.1029C77.9343 43.8008 77.6526 44.4701 77.151 44.9636C76.6495 45.4571 75.9693 45.7344 75.26 45.7344H64.5627C63.8534 45.7344 63.1732 45.4571 62.6716 44.9636C62.1701 44.4701 61.8883 43.8008 61.8883 43.1029V32.5772C61.8883 31.8793 62.1701 31.21 62.6716 30.7165C63.1732 30.223 63.8534 29.9458 64.5627 29.9458ZM85.9573 29.9458H96.6546C97.3639 29.9458 98.0441 30.223 98.5457 30.7165C99.0472 31.21 99.329 31.8793 99.329 32.5772V43.1029C99.329 43.8008 99.0472 44.4701 98.5457 44.9636C98.0441 45.4571 97.3639 45.7344 96.6546 45.7344H85.9573C85.248 45.7344 84.5678 45.4571 84.0663 44.9636C83.5647 44.4701 83.283 43.8008 83.283 43.1029V32.5772C83.283 31.8793 83.5647 31.21 84.0663 30.7165C84.5678 30.223 85.248 29.9458 85.9573 29.9458ZM107.352 29.9458H118.049C118.759 29.9458 119.439 30.223 119.94 30.7165C120.442 31.21 120.724 31.8793 120.724 32.5772V43.1029C120.724 43.8008 120.442 44.4701 119.94 44.9636C119.439 45.4571 118.759 45.7344 118.049 45.7344H107.352C106.643 45.7344 105.962 45.4571 105.461 44.9636C104.959 44.4701 104.678 43.8008 104.678 43.1029V32.5772C104.678 31.8793 104.959 31.21 105.461 30.7165C105.962 30.223 106.643 29.9458 107.352 29.9458ZM128.747 29.9458H139.444C140.153 29.9458 140.833 30.223 141.335 30.7165C141.836 31.21 142.118 31.8793 142.118 32.5772V43.1029C142.118 43.8008 141.836 44.4701 141.335 44.9636C140.833 45.4571 140.153 45.7344 139.444 45.7344H128.747C128.037 45.7344 127.357 45.4571 126.856 44.9636C126.354 44.4701 126.072 43.8008 126.072 43.1029V32.5772C126.072 31.8793 126.354 31.21 126.856 30.7165C127.357 30.223 128.037 29.9458 128.747 29.9458ZM150.141 29.9458H160.839C161.548 29.9458 162.228 30.223 162.73 30.7165C163.231 31.21 163.513 31.8793 163.513 32.5772V43.1029C163.513 43.8008 163.231 44.4701 162.73 44.9636C162.228 45.4571 161.548 45.7344 160.839 45.7344H150.141C149.432 45.7344 148.752 45.4571 148.25 44.9636C147.749 44.4701 147.467 43.8008 147.467 43.1029V32.5772C147.467 31.8793 147.749 31.21 148.25 30.7165C148.752 30.223 149.432 29.9458 150.141 29.9458ZM171.536 29.9458H182.233C182.942 29.9458 183.623 30.223 184.124 30.7165C184.626 31.21 184.908 31.8793 184.908 32.5772V43.1029C184.908 43.8008 184.626 44.4701 184.124 44.9636C183.623 45.4571 182.942 45.7344 182.233 45.7344H171.536C170.827 45.7344 170.146 45.4571 169.645 44.9636C169.143 44.4701 168.862 43.8008 168.862 43.1029V32.5772C168.862 31.8793 169.143 31.21 169.645 30.7165C170.146 30.223 170.827 29.9458 171.536 29.9458ZM64.5627 50.9972H75.26C75.9693 50.9972 76.6495 51.2744 77.151 51.7679C77.6526 52.2614 77.9343 52.9307 77.9343 53.6286V64.1543C77.9343 64.8522 77.6526 65.5216 77.151 66.015C76.6495 66.5085 75.9693 66.7858 75.26 66.7858H64.5627C63.8534 66.7858 63.1732 66.5085 62.6716 66.015C62.1701 65.5216 61.8883 64.8522 61.8883 64.1543V53.6286C61.8883 52.9307 62.1701 52.2614 62.6716 51.7679C63.1732 51.2744 63.8534 50.9972 64.5627 50.9972ZM85.9573 50.9972H96.6546C97.3639 50.9972 98.0441 51.2744 98.5457 51.7679C99.0472 52.2614 99.329 52.9307 99.329 53.6286V64.1543C99.329 64.8522 99.0472 65.5216 98.5457 66.015C98.0441 66.5085 97.3639 66.7858 96.6546 66.7858H85.9573C85.248 66.7858 84.5678 66.5085 84.0663 66.015C83.5647 65.5216 83.283 64.8522 83.283 64.1543V53.6286C83.283 52.9307 83.5647 52.2614 84.0663 51.7679C84.5678 51.2744 85.248 50.9972 85.9573 50.9972ZM107.352 50.9972H118.049C118.759 50.9972 119.439 51.2744 119.94 51.7679C120.442 52.2614 120.724 52.9307 120.724 53.6286V64.1543C120.724 64.8522 120.442 65.5216 119.94 66.015C119.439 66.5085 118.759 66.7858 118.049 66.7858H107.352C106.643 66.7858 105.962 66.5085 105.461 66.015C104.959 65.5216 104.678 64.8522 104.678 64.1543V53.6286C104.678 52.9307 104.959 52.2614 105.461 51.7679C105.962 51.2744 106.643 50.9972 107.352 50.9972ZM128.747 50.9972H139.444C140.153 50.9972 140.833 51.2744 141.335 51.7679C141.836 52.2614 142.118 52.9307 142.118 53.6286V64.1543C142.118 64.8522 141.836 65.5216 141.335 66.015C140.833 66.5085 140.153 66.7858 139.444 66.7858H128.747C128.037 66.7858 127.357 66.5085 126.856 66.015C126.354 65.5216 126.072 64.8522 126.072 64.1543V53.6286C126.072 52.9307 126.354 52.2614 126.856 51.7679C127.357 51.2744 128.037 50.9972 128.747 50.9972ZM150.141 50.9972H160.839C161.548 50.9972 162.228 51.2744 162.73 51.7679C163.231 52.2614 163.513 52.9307 163.513 53.6286V64.1543C163.513 64.8522 163.231 65.5216 162.73 66.015C162.228 66.5085 161.548 66.7858 160.839 66.7858H150.141C149.432 66.7858 148.752 66.5085 148.25 66.015C147.749 65.5216 147.467 64.8522 147.467 64.1543V53.6286C147.467 52.9307 147.749 52.2614 148.25 51.7679C148.752 51.2744 149.432 50.9972 150.141 50.9972ZM171.536 50.9972H182.233C182.942 50.9972 183.623 51.2744 184.124 51.7679C184.626 52.2614 184.908 52.9307 184.908 53.6286V64.1543C184.908 64.8522 184.626 65.5216 184.124 66.015C183.623 66.5085 182.942 66.7858 182.233 66.7858H171.536C170.827 66.7858 170.146 66.5085 169.645 66.015C169.143 65.5216 168.862 64.8522 168.862 64.1543V53.6286C168.862 52.9307 169.143 52.2614 169.645 51.7679C170.146 51.2744 170.827 50.9972 171.536 50.9972ZM64.5627 72.0486H75.26C75.9693 72.0486 76.6495 72.3259 77.151 72.8193C77.6526 73.3128 77.9343 73.9822 77.9343 74.68V85.2058C77.9343 85.9037 77.6526 86.573 77.151 87.0665C76.6495 87.5599 75.9693 87.8372 75.26 87.8372H64.5627C63.8534 87.8372 63.1732 87.5599 62.6716 87.0665C62.1701 86.573 61.8883 85.9037 61.8883 85.2058V74.68C61.8883 73.9822 62.1701 73.3128 62.6716 72.8193C63.1732 72.3259 63.8534 72.0486 64.5627 72.0486ZM85.9573 72.0486H96.6546C97.3639 72.0486 98.0441 72.3259 98.5457 72.8193C99.0472 73.3128 99.329 73.9822 99.329 74.68V85.2058C99.329 85.9037 99.0472 86.573 98.5457 87.0665C98.0441 87.5599 97.3639 87.8372 96.6546 87.8372H85.9573C85.248 87.8372 84.5678 87.5599 84.0663 87.0665C83.5647 86.573 83.283 85.9037 83.283 85.2058V74.68C83.283 73.9822 83.5647 73.3128 84.0663 72.8193C84.5678 72.3259 85.248 72.0486 85.9573 72.0486ZM107.352 72.0486H118.049C118.759 72.0486 119.439 72.3259 119.94 72.8193C120.442 73.3128 120.724 73.9822 120.724 74.68V85.2058C120.724 85.9037 120.442 86.573 119.94 87.0665C119.439 87.5599 118.759 87.8372 118.049 87.8372H107.352C106.643 87.8372 105.962 87.5599 105.461 87.0665C104.959 86.573 104.678 85.9037 104.678 85.2058V74.68C104.678 73.9822 104.959 73.3128 105.461 72.8193C105.962 72.3259 106.643 72.0486 107.352 72.0486Z" fill="#BBDBFF"/>
<path d="M154.901 206.407L151.253 191.548C153.623 187.636 155.199 183.296 155.891 178.775C156.583 174.255 156.378 169.642 155.288 165.2L148.391 137.109C147.907 135.138 146.66 133.441 144.925 132.389C143.189 131.338 141.107 131.019 139.137 131.503L136.66 132.111L126.324 90.0102C125.84 88.0397 124.593 86.3421 122.858 85.2909C121.123 84.2397 119.041 83.9209 117.07 84.4047C115.1 84.8884 113.402 86.1352 112.351 87.8706C111.3 89.606 110.981 91.6879 111.465 93.6583L118.761 123.377C118.277 121.406 117.031 119.709 115.295 118.657C113.56 117.606 111.478 117.287 109.507 117.771C107.537 118.255 105.839 119.502 104.788 121.237C103.737 122.973 103.418 125.054 103.902 127.025L105.118 131.978C104.634 130.008 103.387 128.31 101.652 127.259C99.9167 126.208 97.8348 125.889 95.8643 126.373C93.8939 126.856 92.1963 128.103 91.145 129.838C90.0938 131.574 89.775 133.656 90.2588 135.626L91.4749 140.579C90.9911 138.609 89.7444 136.911 88.009 135.86C86.2736 134.809 84.1916 134.49 82.2212 134.974C80.2507 135.458 78.5532 136.704 77.5019 138.44C76.4507 140.175 76.1319 142.257 76.6157 144.227L85.9448 182.225C87.0352 186.667 88.9899 190.85 91.697 194.536C94.4042 198.222 97.8109 201.339 101.723 203.709L105.371 218.568L154.901 206.407Z" fill="white"/>
<path d="M112.815 67.0688C112.158 67.2301 111.592 67.6457 111.242 68.2241C110.892 68.8026 110.785 69.4966 110.947 70.1534L112.163 75.1065C112.324 75.7633 112.74 76.3291 113.318 76.6796C113.896 77.03 114.59 77.1362 115.247 76.975C115.904 76.8137 116.47 76.3981 116.82 75.8197C117.171 75.2412 117.277 74.5472 117.116 73.8904L115.9 68.9373C115.738 68.2805 115.323 67.7147 114.744 67.3643C114.166 67.0138 113.472 66.9076 112.815 67.0688ZM132.654 69.1188C132.368 68.9452 132.05 68.8297 131.719 68.7789C131.388 68.7282 131.05 68.7432 130.725 68.823C130.399 68.9029 130.093 69.0461 129.823 69.2444C129.553 69.4428 129.325 69.6924 129.151 69.9789L126.51 74.3432C126.159 74.9219 126.053 75.6161 126.215 76.273C126.376 76.9299 126.792 77.4957 127.371 77.846C127.95 78.1963 128.644 78.3023 129.301 78.1408C129.958 77.9792 130.523 77.5634 130.874 76.9847L133.516 72.6211C133.689 72.3346 133.804 72.0167 133.855 71.6856C133.905 71.3546 133.89 71.0168 133.81 70.6916C133.73 70.3663 133.587 70.0601 133.389 69.7902C133.19 69.5204 132.941 69.2922 132.654 69.1188ZM139.968 81.4088L135.015 82.6249C134.358 82.7861 133.792 83.2017 133.442 83.7802C133.092 84.3586 132.985 85.0526 133.147 85.7094C133.308 86.3663 133.723 86.9321 134.302 87.2825C134.88 87.6329 135.574 87.7392 136.231 87.5779L141.184 86.3619C141.841 86.2006 142.407 85.785 142.757 85.2066C143.108 84.6281 143.214 83.9341 143.053 83.2773C142.891 82.6205 142.476 82.0546 141.897 81.7042C141.319 81.3538 140.625 81.2475 139.968 81.4088ZM100.344 91.1373L95.3906 92.3534C94.7338 92.5147 94.1679 92.9302 93.8175 93.5087C93.4671 94.0872 93.3608 94.7811 93.5221 95.438C93.6833 96.0948 94.0989 96.6606 94.6774 97.011C95.2558 97.3615 95.9498 97.4677 96.6066 97.3065L101.56 96.0904C102.217 95.9291 102.782 95.5136 103.133 94.9351C103.483 94.3566 103.589 93.6626 103.428 93.0058C103.267 92.349 102.851 91.7832 102.273 91.4327C101.694 91.0823 101 90.9761 100.344 91.1373ZM102.161 76.6055C101.582 76.2548 100.888 76.1483 100.231 76.3095C99.5739 76.4706 99.0077 76.8861 98.6571 77.4647C98.3064 78.0433 98.1999 78.7375 98.361 79.3945C98.5221 80.0516 98.9377 80.6178 99.5162 80.9685L103.879 83.6124C104.458 83.963 105.152 84.0696 105.809 83.9085C106.466 83.7475 107.032 83.332 107.382 82.7535C107.733 82.1751 107.84 81.481 107.679 80.824C107.518 80.167 107.102 79.6009 106.524 79.2502L102.161 76.6055Z" fill="white"/>
</svg>
